<svg width="766" height="110" viewBox="0 0 766 110" fill="none" xmlns="http://www.w3.org/2000/svg">
<path d="M763.005 72.7561C761.915 73.4467 761.544 74.9033 760.864 75.9931C759.687 77.8813 757.966 79.5268 756.413 81.2181C754.856 82.9148 753.185 84.5252 751.295 85.7471C749.406 86.9691 747.257 88.1371 745.012 88.5876C742.855 89.0192 740.558 88.5957 738.177 87.9995C736.503 87.5814 735.012 86.8531 733.644 85.8982C732.249 84.9244 731.225 83.7942 730.411 82.2917C730.766 81.9572 730.922 81.7549 731.277 81.4204C732.339 80.4277 734.24 79.168 736.127 77.4066C737.56 76.0659 738.543 74.0078 740.021 72.4324C741.49 70.8679 743.346 69.6136 744.488 67.9978C745.861 66.0529 746.803 64.0406 747.115 62.3061C747.492 60.1967 746.831 58.1736 744.573 56.8923C742.519 55.9401 740.335 55.843 738.347 56.3205C736.424 56.7817 734.696 58.0522 732.992 59.4414C731.444 60.7012 730.103 62.2846 728.849 63.9921C727.596 65.6996 726.684 67.5123 725.843 69.3384C724.912 71.3588 724.082 73.266 723.77 75.0948C723.342 77.6089 723.65 79.7561 724.71 81.0401C723.421 82.1865 722.075 83.5271 720.737 84.625C718.691 86.3109 716.43 87.8161 714.186 89.2727C711.938 90.7294 709.415 91.6735 706.936 92.6769C704.852 93.5239 702.679 94.3251 700.363 94.6623C698.048 94.9994 695.778 94.8268 693.501 94.5625C691.188 94.2927 688.99 93.7937 686.928 92.7929C684.894 91.8056 683.261 90.3517 681.713 88.5498C680.795 87.4681 679.954 86.5914 679.424 85.3506C680.883 84.4065 682.701 83.2789 684.561 81.5957C686.005 80.2875 687.477 78.6798 689.066 77.0073C690.462 75.5372 691.972 73.9862 693.416 72.2868C694.754 70.7115 696.128 69.0417 697.46 67.3073C698.738 65.6456 700 63.895 701.231 62.1227C702.441 60.3829 703.43 58.4623 704.555 56.6469C705.682 54.8288 706.799 52.9972 707.804 51.1386C708.828 49.2396 709.342 47.1221 710.199 45.2123C711.056 43.3025 711.925 41.2875 712.588 39.3264C713.293 37.244 714.478 35.3396 714.874 33.33C715.3 31.1558 714.92 28.9628 714.915 26.9316C714.907 24.7223 714.461 22.7289 713.855 20.7625C713.227 18.7286 712.599 16.7594 711.234 15.0654C709.972 13.5036 708.247 12.3383 706.272 11.1352C704.107 9.81615 701.354 9.35218 699.203 10.6955C697.327 11.8662 695.882 13.7005 694.195 15.2785C692.507 16.8565 690.694 18.1216 689.263 19.9263C687.892 21.6553 686.685 23.5894 685.476 25.537C684.307 27.4198 683.477 29.5346 682.458 31.5658C681.459 33.5592 680.047 35.4043 679.192 37.4922C678.343 39.5692 677.966 41.8378 677.262 43.9607C676.549 46.1079 675.981 48.2793 675.413 50.4238C674.829 52.633 674.149 54.7829 673.723 56.9328C673.272 59.2041 673.059 61.4484 672.786 63.5901C672.489 65.9315 672.398 68.1731 672.308 70.2826C672.207 72.7265 672.207 74.9654 672.388 76.975C672.628 79.6401 672.947 81.879 673.69 83.5163C671.099 85.329 668.545 87.2631 665.711 88.5822C663.371 89.6585 660.569 89.8446 657.986 89.9525C655.381 90.0604 652.863 89.7583 650.758 87.8242C649.428 86.6022 648.369 85.0809 647.377 83.4759C646.416 81.9221 645.31 80.3765 644.608 78.6771C643.885 76.9237 643.391 75.0975 642.883 73.417C642.159 70.9839 641.526 68.4267 641.154 65.945C642.607 64.3751 644.464 62.9401 645.87 61.2002C647.276 59.4603 648.194 57.4993 649.488 55.7001C650.758 53.9359 652.17 52.2419 653.36 50.3941C654.548 48.5545 655.367 46.4936 656.46 44.6081C657.565 42.6983 659.106 41.0366 660.094 39.116C661.113 37.1388 661.719 34.997 662.598 33.0467C663.521 30.9967 664.627 29.0788 665.372 27.1015C666.175 24.9651 666.358 22.7316 666.923 20.7355C667.562 18.4885 668.764 16.5032 669.064 14.507C669.427 12.0982 668.843 9.88358 668.646 7.97108C668.387 5.43546 668.174 3.14261 666.79 1.76691C665.397 0.383106 663.169 -0.0916483 660.465 0.0270402C658.527 0.140334 656.705 1.30294 654.764 3.03202C653.308 4.3268 651.965 6.02081 650.569 8.03582C649.406 9.71364 647.7 11.2809 646.615 13.3579C645.646 15.2165 645.114 17.4122 644.229 19.5216C643.404 21.4881 642.517 23.5085 641.788 25.6341C641.059 27.7597 640.294 29.7423 639.699 31.8841C639.114 33.9827 638.535 36.1191 638.066 38.269C637.599 40.4162 637.091 42.5769 636.755 44.7322C636.414 46.9225 636.561 49.1641 636.37 51.3167C636.173 53.5475 635.734 55.7351 635.715 57.8715C635.698 60.1374 636.187 62.3898 636.392 64.4884C634.999 65.9046 633.454 67.2776 631.933 68.5427C630.409 69.8105 628.751 70.9192 627.086 72.0089C625.434 73.0906 623.834 74.3261 622.034 75.2081C620.273 76.074 618.249 76.4085 616.335 77.0613C614.238 77.7761 611.972 78.9927 609.582 79.3191C607.185 79.6482 604.749 79.2058 602.573 78.3318C600.044 77.3149 599.293 75.3538 599.004 73.0178C599.664 72.508 600.129 72.0845 600.773 71.545C602.341 70.2448 603.526 68.5427 604.948 67.0834C606.368 65.624 608.244 64.5397 609.5 62.9427C610.759 61.3405 611.936 59.6303 613.009 57.912C614.377 55.7001 615.865 52.8488 615.188 50.1595C614.415 47.0574 610.866 46.0242 608.08 46.9306C606.308 47.5025 604.935 48.8485 603.507 49.9383C602.067 51.0361 600.656 52.1772 599.569 53.6365C598.488 55.0877 597.764 56.7602 597.035 58.4029C596.202 60.2642 595.336 62.2684 594.777 64.4021C594.217 66.5358 593.556 68.4941 593.499 70.6009C592.049 71.6097 590.746 72.5538 589.209 73.4251C587.671 74.2964 586.082 75.0544 584.463 75.7719C582.418 76.6944 580.375 77.6385 578.215 78.2752C575.864 78.9738 573.185 79.8073 570.706 79.3919C567.874 78.9225 566.918 76.627 566.793 74.0212C566.667 71.4155 567.216 68.6722 567.563 66.8541C568.109 64.0056 569.687 59.8326 570.061 57.4453C570.438 55.0419 567.918 53.9467 565.927 55.7378C564.398 56.8681 562.724 58.0549 560.922 58.6106C558.699 59.2796 556.555 58.732 554.737 57.2052C554.013 56.601 553.686 55.897 553.412 55.0688C553.669 53.8442 554.193 52.598 554.103 51.3517C553.819 47.435 550.166 45.7302 548.161 48.3306C547.031 49.798 546.886 52.9486 547.785 55.1255C547.307 57.011 547.028 58.8048 546.212 60.5771C545.395 62.3466 544.674 64.2133 543.557 65.8182C542.441 67.4232 540.879 68.7018 539.497 70.0883C538.113 71.4775 536.542 72.6213 534.931 73.738C533.318 74.8548 531.898 76.3761 530.095 77.1665C527.504 78.2967 523.913 78.8848 521.999 76.2116C520.371 73.9835 520.003 70.7276 519.874 68.0706C519.809 67.0537 520.008 66.0529 520.057 65.0333C521.04 63.4094 521.434 61.5778 522.051 59.8191C522.665 58.063 523.779 56.4176 524.115 54.5644C524.451 52.7113 524.639 50.85 524.787 48.9699C524.997 46.472 522.073 46.0971 520.863 47.9421C519.836 49.5121 518.689 50.9552 518.048 52.6195C517.395 54.3136 516.783 56.0615 516.423 57.8553C516.073 59.606 516.338 61.5266 516.169 63.3689C515.262 64.7528 513.433 66.1905 511.601 67.8791C510.137 69.2278 508.589 70.7411 506.767 71.9901C505.011 73.1931 503.037 74.0698 501.142 74.9438C499.105 75.8825 497.109 76.5164 495.132 76.7942C493.485 77.0262 492.688 74.8548 492.636 72.1735C492.592 69.8618 493.33 67.4691 493.947 66.382C495.49 64.2267 496.841 62.263 498.466 60.8037C500.418 59.0476 502.671 58.1008 504.569 56.9598C506.819 55.6083 508.725 54.1463 510.615 53.0053C512.799 51.6862 514.724 50.3941 515.978 48.3333C517.231 46.2724 518.326 42.9006 515.432 43.6747C513.384 44.2223 511.453 45.2366 509.528 46.1106C507.603 46.9845 505.626 47.9017 503.867 49.0157C502.109 50.1298 500.38 51.5702 498.818 52.865C497.076 54.3082 495.43 55.7028 494.135 57.1405C492.472 58.9883 491.443 60.9601 490.711 62.4734C488.974 63.5794 486.934 64.2052 485.192 65.2356C483.445 66.2714 481.97 67.7604 480.179 68.7558C478.426 69.7296 476.531 70.4984 474.693 71.4694C472.937 72.3974 471.113 73.2929 469.248 74.2478C467.042 75.3781 464.39 77.3958 461.799 77.0775C460.472 76.4193 460.72 73.7407 461.07 70.609C461.288 68.6614 461.659 66.4279 462.004 64.1269C462.348 61.826 462.372 59.668 462.46 57.5748C462.563 55.1147 462.768 52.7032 462.025 50.966C461.173 48.9753 459.218 47.7992 456.463 47.6778C453.97 47.5672 451.895 48.5599 449.907 49.8358C448.017 51.0496 446.171 52.5089 444.697 54.4727C443.309 56.3205 441.857 58.2734 440.805 60.364C439.697 62.5678 439.205 64.9874 438.43 66.9943C437.321 69.8698 436.316 72.16 435.795 73.444C435.8 72.3866 436.253 70.288 436.507 67.6121C436.679 65.7967 436.906 63.7439 436.944 61.6722C436.982 59.6006 436.346 57.6746 436.068 55.7918C435.748 53.6365 435.314 51.7644 434.32 50.2808C433.214 48.6327 431.819 47.1302 429.511 47.025C426.98 46.909 424.411 48.3791 421.969 49.8331C419.547 51.2735 417.062 52.8219 415.378 54.4754C413.089 56.7332 411.257 59.4333 409.567 62.1686C410.001 60.8171 409.583 57.68 408.614 54.8288C407.677 52.0747 406.353 49.9167 403.767 50.1999C401.607 50.6261 399.433 50.8959 397.333 51.5945C395.266 52.2824 393.139 52.9136 391.105 53.8253C389.128 54.7101 387.334 56.0372 385.362 57.0946C383.459 58.117 381.577 59.2391 379.66 60.3856C377.806 61.4942 376.053 62.8187 374.166 64.0136C372.34 65.1709 370.48 66.3362 368.607 67.5446C366.733 68.7531 364.549 69.3088 362.67 70.5065C360.843 71.6691 359 72.8559 357.1 74.0159C355.251 75.1461 353.419 76.3492 351.488 77.4578C349.607 78.5368 347.785 79.7696 345.814 80.8081C343.894 81.8169 341.887 82.7125 339.869 83.6647C337.909 84.5899 336.076 85.8874 334.012 86.7398C332.008 87.5652 329.93 88.334 327.819 89.0758C325.776 89.7933 323.507 89.939 321.355 90.5648C319.539 91.0908 317.483 91.7895 315.157 92.391C313.212 92.8927 311.126 93.4673 308.89 93.9825C306.88 94.4465 304.807 95.1046 302.609 95.5524C300.559 95.9705 298.371 96.0488 296.187 96.4318C294.103 96.7986 291.995 97.2869 289.824 97.6052C287.653 97.9235 285.619 98.5898 283.454 98.8352C281.321 99.078 279.139 99.0699 276.979 99.2345C274.828 99.399 272.657 99.3208 270.502 99.3963C268.334 99.4718 266.18 99.2507 264.036 99.2156C261.857 99.1832 259.711 99.1481 257.583 98.9863C255.399 98.8218 253.231 98.8487 251.131 98.5304C248.954 98.2013 246.778 98.0179 244.725 97.5081C242.584 96.9767 240.566 96.1486 238.597 95.3987C236.538 94.6137 234.761 93.3972 232.931 92.3478C231.036 91.2608 229.081 90.3463 227.478 88.949C225.864 87.541 224.46 85.9225 223.191 84.1691C221.967 82.4805 220.872 80.6489 220.012 78.6123C219.218 76.7322 218.273 74.7577 217.825 72.5592C217.421 70.5793 217.598 68.3943 217.503 66.1392C217.451 64.8984 215.944 64.6071 214.993 64.893C214.933 63.404 212.579 63.0237 209.589 63.3312C207.888 63.5065 206.009 64.4965 203.909 65.0468C202.058 65.5323 199.947 65.535 198.08 66.204C196.212 66.873 194.207 67.5986 192.555 68.3781C190.518 69.3384 188.178 70.6144 185.901 72.0845C183.795 73.4413 181.944 75.3106 180.101 76.9723C178.105 78.7742 176.185 80.4817 175.049 82.4859C173.009 83.2088 171.109 83.9398 169.099 84.5737C167.048 85.2238 165.019 85.8442 162.974 86.4134C160.918 86.9853 158.818 87.3521 156.743 87.8539C154.681 88.3502 152.611 88.8034 150.503 89.235C148.439 89.6612 146.369 90.1386 144.236 90.5109C142.156 90.8777 140.099 91.5305 137.975 91.8353C135.87 92.1347 133.756 92.534 131.629 92.7147C129.502 92.8954 127.35 93.095 125.22 93.1004C123.085 93.1031 120.966 92.5448 118.849 92.3155C116.733 92.0835 114.554 92.1051 112.479 91.5844C110.275 91.0288 108.334 89.6854 106.296 88.6766C104.257 87.665 102.471 86.4458 100.827 84.8543C99.8112 83.8832 98.5332 83.0551 97.7932 81.9113C99.4179 80.7514 101.384 79.9125 102.957 78.6852C104.53 77.4551 105.931 75.9985 107.441 74.6983C108.953 73.3954 110.586 72.2032 112.028 70.8274C113.538 69.3843 114.944 67.7847 116.37 66.2202C117.782 64.6691 119.071 62.9805 120.351 61.3162C121.632 59.6491 123.003 58.0064 124.109 56.2288C125.22 54.443 125.949 52.4334 126.837 50.5398C127.727 48.6408 128.398 46.6635 129.018 44.662C129.633 42.674 130.072 40.6455 130.375 38.5577C130.64 36.753 130.722 34.8432 130.501 33.0009C130.272 31.0614 129.551 29.4321 128.434 27.9944C127.374 26.6295 126.195 25.0164 124.024 24.5902C122.121 24.2179 120.149 24.636 118.339 25.0865C116.539 25.5343 114.98 26.6564 113.339 27.5951C111.698 28.5339 110.084 29.5184 108.664 30.6352C107.05 31.8922 105.589 33.2922 104.153 34.7515C102.722 36.2055 101.166 37.5569 99.9231 39.1781C98.6807 40.7992 97.9188 42.7171 96.8784 44.4732C95.8408 46.2266 94.5027 47.8208 93.6808 49.682C92.8562 51.546 92.493 53.5718 91.8977 55.5139C91.2997 57.4642 90.3658 59.3308 90.0135 61.327C89.6422 63.4256 89.421 65.5944 89.35 67.7388C89.279 69.886 89.309 72.0764 89.6394 74.1885C89.9698 76.3006 90.4013 78.4829 91.2341 80.4817C91.2505 80.5302 91.5209 80.2578 91.5372 80.2902C89.7268 81.4986 88.0365 82.8797 86.1742 84.0073C84.3092 85.1348 82.2803 85.9764 80.3688 87.0176C78.4819 88.0481 76.748 89.3644 74.8147 90.3112C72.8814 91.2581 70.8197 91.9324 68.8454 92.7929C66.8712 93.6534 64.8341 94.3359 62.8216 95.11C60.8118 95.8815 58.9796 97.1493 56.937 97.8318C54.8945 98.5142 52.7564 98.9377 50.6865 99.5312C48.614 100.125 46.4758 100.473 44.3814 100.974C42.2843 101.476 40.1571 101.794 38.0408 102.204C35.9246 102.614 33.7947 102.876 31.662 103.192C29.5294 103.507 27.4404 104.106 25.2941 104.325C23.1478 104.543 20.9851 104.454 18.8306 104.575C16.6761 104.697 14.538 105.145 12.3808 105.166C9.36887 105.199 6.37333 104.748 3.3778 104.589C0.734515 104.468 -1.51009 106.574 1.2943 108.654C2.34015 109.428 3.72459 109.938 5.02985 109.989C7.18707 110.073 9.35522 109.482 11.5124 109.471C13.6724 109.461 15.8433 109.984 18.0005 109.879C20.1577 109.771 22.2931 109.326 24.4421 109.126C26.5912 108.926 28.7948 109.121 30.9329 108.827C33.071 108.533 35.1163 107.64 37.2407 107.254C39.3652 106.868 41.446 106.334 43.5513 105.859C45.6567 105.385 47.7647 104.969 49.8482 104.406C51.9317 103.842 53.9743 103.181 56.0304 102.531C58.0866 101.881 60.1647 101.317 62.1908 100.578C64.217 99.8414 66.153 98.9027 68.1464 98.0773C70.137 97.2545 72.398 97.0171 74.3505 96.1108C76.3056 95.2044 78.0532 93.8692 79.9674 92.8792C82.3622 91.6357 84.7597 90.376 87.0972 89.003C89.4346 87.63 91.6984 86.4997 93.9512 85.008C95.0325 86.5887 96.4907 87.5086 97.8997 88.8061C99.3005 90.0981 100.494 91.7166 102.173 92.685C104.066 93.7748 106.351 94.0041 108.413 94.7108C110.466 95.4149 112.498 96.0703 114.655 96.4507C116.793 96.831 118.942 96.9983 121.124 97.117C123.306 97.2383 125.488 97.7913 127.656 97.7104C129.865 97.6268 132.047 97.2788 134.177 97.0441C136.418 96.796 138.696 96.7393 140.932 96.4048C143.169 96.0703 145.361 95.4877 147.581 95.0723C149.799 94.6569 152.005 94.1578 154.206 93.6642C156.41 93.1706 158.651 92.8199 160.836 92.2534C163.021 91.6843 165.191 91.0396 167.351 90.4003C169.517 89.7583 171.51 89.0623 173.648 88.3502C173.23 90.1899 173.026 91.9945 173.247 93.818C173.484 95.7574 173.998 97.8021 175.199 99.2156C176.319 100.532 178.211 101.293 180.379 101.711C182.526 102.126 184.596 101.614 186.624 100.945C188.653 100.276 190.802 99.6822 192.569 98.5952C194.355 97.4973 195.876 95.984 197.539 94.7081C199.205 93.4322 200.693 91.9648 202.214 90.5324C204.011 88.8384 205.616 87.3602 207.009 85.8119C208.543 84.1071 209.794 82.3672 211.039 80.4628C212.178 78.7202 213.431 76.9615 214.496 74.7388C214.644 76.9588 214.704 79.1275 215.324 81.0886C215.976 83.1576 217.243 84.9676 218.385 86.756C219.526 88.5444 220.698 90.3706 222.287 91.8731C223.797 93.3027 225.504 94.6919 227.39 95.8734C229.146 96.9713 231.082 98.0233 233.136 98.9081C235.042 99.7281 237.12 100.435 239.261 101.071C241.257 101.665 243.4 102.078 245.585 102.515C247.636 102.925 249.782 103.251 251.986 103.523C254.069 103.78 256.254 103.591 258.463 103.726C260.565 103.853 262.712 103.858 264.918 103.874C267.029 103.89 269.191 104.254 271.39 104.171C273.506 104.09 275.655 103.844 277.842 103.672C279.958 103.505 282.107 103.31 284.284 103.057C286.395 102.811 288.585 102.857 290.747 102.533C292.853 102.215 294.95 101.638 297.096 101.247C299.193 100.864 301.29 100.349 303.423 99.8927C305.509 99.4476 307.593 98.8811 309.706 98.3686C311.782 97.8642 313.778 96.9983 315.875 96.4291C317.972 95.8599 320.031 95.3825 322.112 94.7594C324.209 94.1309 326.186 93.4214 328.114 92.7875C330.2 92.1024 332.196 91.4604 334.099 90.7698C336.169 90.0172 338.239 89.5425 340.107 88.7872C342.155 87.9618 344.025 86.9961 345.858 86.1706C347.875 85.2616 349.954 84.7221 351.742 83.8157C353.719 82.815 355.524 81.7198 357.264 80.7298C359.189 79.6347 360.723 78.1403 362.416 77.0694C364.279 75.8906 366.146 74.933 367.807 73.792C369.606 72.5565 371.392 71.4614 373.055 70.288C374.808 69.0498 376.507 67.836 378.227 66.6814C379.972 65.5134 381.766 64.456 383.606 63.3905C385.381 62.3655 387.071 61.0788 389.051 60.1671C390.878 59.3255 392.931 58.7833 395.026 58.0522C396.907 57.3968 398.903 56.7305 401.069 56.1721C403.436 55.7783 404.275 57.6233 404.277 60.5258C404.277 62.2792 404.124 64.4668 403.693 66.7974C403.324 68.7774 403.029 70.9246 402.565 73.0043C402.087 75.1353 401.629 77.2339 401.263 79.1545C400.785 81.6686 400.364 83.7861 400.501 85.3182C400.744 87.9105 404.471 88.7521 405.293 86.0466C405.938 83.9102 406.06 81.5499 406.792 79.3541C407.508 77.2043 408.204 74.995 409.075 72.8829C409.946 70.7654 411.025 68.6991 412.12 66.7111C413.231 64.7015 414.952 63.0857 416.366 61.3027C417.783 59.517 419.203 57.7582 421 56.2962C422.98 54.6723 425.844 52.7625 428.455 52.3795C430.317 52.107 431.169 53.9359 431.611 57.0946C431.871 58.9451 431.816 61.1759 431.789 63.5847C431.764 65.6807 431.802 67.9007 431.669 70.0964C431.535 72.2922 431.715 74.5904 431.562 76.6243C431.368 79.2085 430.565 81.4609 430.544 83.1036C430.511 85.4423 434.487 86.5402 435.631 84.4416C436.248 83.314 436.636 81.0239 437.731 78.491C438.482 76.7538 439.612 74.9087 440.524 72.8559C441.352 70.992 442.261 69.066 443.178 67.1643C444.096 65.2626 444.716 63.1343 445.701 61.3863C446.832 59.3794 448.244 57.6908 449.38 56.2395C451.108 54.033 452.889 52.6519 454.453 52.7086C456.539 52.7841 457.501 54.7802 457.648 57.5128C457.746 59.3335 457.058 61.4672 456.742 63.6846C456.441 65.7832 456.367 67.9654 456.007 69.8752C455.466 72.7373 455.177 75.0652 455.346 76.0147C455.941 79.3299 457.736 81.1803 460.207 81.6551C462.612 82.1163 465.657 81.593 468.145 80.541C469.961 79.7749 472.069 78.1538 474.491 76.9264C476.681 75.8178 479.037 74.8197 481.042 73.7461C484.319 71.9901 487.126 70.5523 487.631 70.261C486.973 72.0979 486.711 74.1211 487.085 75.985C487.508 78.089 488.496 79.9368 489.804 81.0158C491.279 82.2323 493.013 82.4023 494.823 82.2728C496.634 82.1433 498.368 81.5256 499.976 80.9726C501.926 80.309 503.788 79.516 505.593 78.5314C507.395 77.5495 509.465 76.9048 511.082 75.6424C512.698 74.38 513.982 72.5916 515.372 71.0864C515.601 72.8236 516.112 74.5904 516.759 76.1657C517.433 77.8058 518.001 79.6131 519.309 80.7676C520.879 82.1487 522.889 82.7314 524.732 82.8608C526.581 82.9876 528.457 82.2054 530.306 81.5607C532.138 80.9214 533.962 80.1984 535.521 79.2813C537.867 77.9029 540.237 76.4651 542.214 74.6147C544.191 72.7642 546.094 70.7249 547.645 68.5076C549.319 66.1366 550.283 63.3123 551.332 60.6553C553.03 62.1389 555.201 63.1747 557.446 63.2691C559.625 63.3582 561.97 62.7674 564.002 61.969C564.18 61.8907 562.91 66.32 562.588 68.4213C562.317 70.2448 561.738 72.2436 561.823 74.1831C561.908 76.1226 562.689 78.0594 563.584 79.6994C564.48 81.3395 565.703 82.7799 567.757 83.6026C569.611 84.3418 571.705 84.6088 573.77 84.4308C575.736 84.2608 577.612 83.2277 579.534 82.61C581.541 81.9653 583.548 81.4555 585.26 80.7433C586.852 80.0851 588.256 79.0844 589.774 78.2859C591.292 77.4848 593.002 76.8617 594.452 75.9472C595.2 78.4775 596.268 80.6246 597.969 81.8601C599.771 83.1657 602.218 83.3626 604.642 83.573C606.83 83.7645 609.222 84.1259 611.565 83.7105C613.848 83.3059 616.002 82.1703 618.116 81.4474C620.524 80.622 622.629 79.5511 624.377 78.6582C626.684 77.4821 629.183 76.627 631.288 75.1461C633.396 73.6625 635.321 72.1627 637.233 70.4336C637.506 71.7392 637.839 72.6995 638.21 73.9727C638.795 75.9931 639.144 78.2347 639.994 80.3171C640.824 82.3456 641.987 84.2797 643.134 86.1329C644.314 88.0373 645.515 89.9902 647.099 91.4577C648.726 92.9683 650.818 93.4214 652.637 94.0499C654.586 94.7243 656.52 95.458 658.587 95.3204C660.569 95.191 662.524 94.4141 664.518 93.7316C666.413 93.0842 668.341 92.3613 670.162 91.3821C671.97 90.4111 673.676 89.4319 675.331 88.2935C676.38 90.2951 677.964 91.7625 679.591 93.2704C681.218 94.7782 682.816 96.4237 684.853 97.411C686.846 98.3767 689.176 98.5062 691.401 98.9458C693.586 99.3747 695.767 99.8792 698.028 99.774C700.229 99.6715 702.395 99.4772 704.467 98.9377C706.562 98.3929 708.55 97.5054 710.518 96.6017C712.471 95.7062 714.516 94.905 716.351 93.7451C718.167 92.5987 719.732 91.0531 721.441 89.7313C723.151 88.4095 724.816 87.4169 726.425 86.0061C727.539 87.7756 729.098 88.7548 730.723 89.8877C732.377 91.0396 734.199 91.8353 736.176 92.364C738.115 92.8819 740.108 93.2461 742.159 93.2002C744.185 93.1544 746.113 92.5286 748.06 91.9675C750.028 91.3983 751.82 90.6269 753.51 89.5641C755.195 88.5093 756.732 87.371 758.16 86.0142C759.588 84.6574 760.896 83.2358 762.084 81.6632C763.272 80.0932 764.293 78.4721 765.266 76.77C766.74 73.0232 766.025 70.8625 763.013 72.7696L763.005 72.7561ZM598.993 66.1905C599.484 64.0217 600.38 61.8476 601.349 59.7975C602.319 57.7447 603.597 55.8026 605.265 54.2407C606.021 53.5421 606.832 52.8704 607.734 52.3768C608.184 52.1394 608.656 51.9047 609.137 51.7294C609.347 51.6512 610.142 51.8265 610.254 51.5567C610.543 52.7328 607.993 55.8187 607.559 56.4877C606.368 58.268 605.363 60.194 603.957 61.8098C602.551 63.4256 601.019 64.9982 599.432 66.4468C599.299 66.5439 598.99 66.1986 598.99 66.1905H598.993ZM95.595 77.9461C94.7731 75.6883 94.2515 72.9827 94.1368 70.5307C94.0303 68.3107 94.1478 66.0394 94.4372 63.8113C94.7267 61.6075 95.0298 59.3362 95.6687 57.1837C96.305 55.0446 97.6321 53.1267 98.5742 51.0955C99.519 49.0589 100.341 46.9522 101.553 45.0801C102.785 43.1838 104.355 41.5464 105.821 39.8794C107.471 38.002 109.513 36.2513 111.605 34.5465C113.697 32.839 115.657 30.8834 118.09 30.0418C119.991 29.389 122.716 28.9789 124.469 30.3142C126.593 31.9219 125.848 35.3099 125.523 37.5866C125.198 39.847 125.029 42.1156 124.305 44.2439C123.579 46.3884 122.82 48.5626 121.763 50.5695C120.709 52.5683 119.057 54.2299 117.746 56.0912C116.441 57.9443 115.414 60.0295 113.926 61.7424C112.427 63.4661 110.838 65.1331 109.224 66.7084C107.842 68.0464 106.447 69.3978 104.997 70.6683C103.549 71.9361 101.761 72.8155 100.248 74.0132C98.738 75.2108 97.1542 76.8185 95.5896 77.9461H95.595ZM194.666 72.713C196.523 72.0386 198.243 71.6529 199.606 71.2348C202.995 70.1935 204.292 69.6055 202.042 70.7627C200.335 71.634 198.331 72.6752 196.184 73.6949C194.237 74.6201 192.148 75.4482 190.182 76.333C188.017 77.3068 186.04 78.5665 184.262 79.2867C185.393 78.0513 187.392 76.8806 189.3 75.7018C191.253 74.496 193.164 73.2606 194.666 72.713ZM202.08 83.7915C200.594 85.4261 199.144 87.2685 197.389 88.8627C195.633 90.4569 193.792 91.7787 191.886 93.0573C189.923 94.3763 187.998 95.7601 185.884 96.5532C183.162 97.5701 179.825 97.4541 178.667 94.2253C177.829 91.8542 178.364 89.1864 179.298 86.961C179.41 86.7236 179.552 86.7317 179.667 86.4781C181.496 85.8092 183.102 84.6466 184.912 83.9263C186.723 83.2061 188.618 82.6855 190.404 81.9113C192.192 81.1372 194.087 80.5788 195.849 79.7507C197.613 78.9306 199.194 77.4875 201.07 76.5946C202.894 75.726 204.802 75.0004 206.512 73.9484C208.221 72.8964 209.906 71.9172 211.307 70.5172C210.523 72.16 209.854 73.6922 208.915 75.254C207.975 76.8158 206.919 78.3237 205.829 79.7884C204.74 81.2532 203.309 82.44 202.08 83.7942V83.7915ZM661.025 6.4551C663.04 6.95413 664.094 8.75874 663.955 11.7583C663.871 13.6088 663.21 15.8207 662.516 18.2835C661.962 20.2553 661.175 22.3594 660.323 24.574C659.559 26.5701 658.77 28.6687 657.83 30.7593C656.929 32.7608 655.741 34.6733 654.736 36.6748C653.729 38.679 653.052 40.8505 651.989 42.7711C650.875 44.7834 649.666 46.6851 648.554 48.5086C647.309 50.5506 645.897 52.3228 644.737 53.998C643.227 56.1748 641.793 58.3894 640.594 59.6734C640.43 57.8338 640.439 55.228 640.654 52.6897C640.826 50.6504 641.566 48.487 641.951 46.1591C642.298 44.0551 642.094 41.7407 642.593 39.5126C643.071 37.3789 644.273 35.3719 644.868 33.2221C645.463 31.0695 646.023 28.9196 646.719 26.8479C647.416 24.7763 648.019 22.5185 648.83 20.544C649.728 18.359 650.616 16.2982 651.593 14.4855C652.789 12.2601 654.078 10.3988 655.34 8.97993C657.249 6.83545 659.133 5.99114 661.031 6.4605L661.025 6.4551ZM705.762 18.4993C707.457 20.0045 708.558 21.9709 709.077 24.164C709.538 26.1277 709.309 28.345 708.997 30.708C708.73 32.7311 708.066 34.8055 707.337 37.0228C706.685 39.0108 705.887 41.0366 704.942 43.111C704.058 45.0559 703.181 47.0655 702.1 49.0292C701.018 50.993 699.852 52.776 698.678 54.6453C697.504 56.512 696.671 58.6025 695.426 60.3909C694.143 62.2306 692.373 63.6792 691.071 65.3813C689.678 67.2021 688.335 68.9473 686.988 70.5442C685.451 72.3704 684.105 74.1291 682.734 75.5723C680.893 77.5091 679.413 78.9981 678.097 80.042C677.516 78.1726 676.874 76.2197 676.716 73.9214C676.579 71.9172 676.456 69.735 676.609 67.4934C676.751 65.446 677.598 63.3824 677.961 61.2083C678.302 59.1528 678.523 57.0245 679.042 54.9124C679.561 52.8003 679.949 50.7502 680.601 48.7001C681.254 46.6501 681.896 44.6108 682.671 42.6281C683.458 40.6212 684.411 38.6817 685.312 36.7773C686.243 34.8055 687.477 33.0252 688.512 31.2151C689.612 29.2919 690.524 27.3281 691.718 25.6557C693.031 23.816 694.683 22.389 696.081 20.9405C697.698 19.2654 699.072 17.5363 700.754 16.514C702.236 15.613 704.473 17.3475 705.767 18.4966L705.762 18.4993ZM728.814 77.0478C729.049 74.6605 730.187 72.5268 731.348 70.4336C732.571 68.2271 733.691 65.9531 735.261 64.394C737.735 61.9339 740.067 60.8037 741.167 60.9979C741.424 62.8807 740.381 65.33 738.328 67.6903C736.602 69.6702 734.229 71.3427 732.73 72.9746C731.457 74.3584 730.185 75.726 728.817 77.0478H728.814Z" fill="#2C2C2B"/>
</svg>
